<?xml version="1.0" standalone="no"?>
<!DOCTYPE svg PUBLIC "-//W3C//DTD SVG 20010904//EN"
 "http://www.w3.org/TR/2001/REC-SVG-20010904/DTD/svg10.dtd">
<svg version="1.0" xmlns="http://www.w3.org/2000/svg"
 width="319.000000pt" height="320.000000pt" viewBox="0 0 319.000000 320.000000"
 preserveAspectRatio="xMidYMid meet">

<g transform="translate(0.000000,320.000000) scale(0.100000,-0.100000)"
fill="#000000" stroke="none">
<path d="M1343 2742 c-12 -4 -30 -18 -41 -32 -37 -48 -279 -395 -290 -417 -9
-15 -12 -146 -12 -461 0 -409 -1 -440 -17 -447 -10 -3 -124 -4 -255 -1 -247 6
-323 -1 -351 -32 -8 -9 -22 -42 -30 -72 -28 -97 -148 -750 -141 -763 4 -6 16
-22 27 -34 l20 -23 1254 0 c1379 0 1292 -4 1326 62 9 18 49 200 88 403 77 400
78 427 29 452 -19 10 -120 13 -407 13 l-383 0 0 65 c0 61 2 66 35 96 35 32 35
33 35 113 0 90 -1 92 -50 128 -66 48 -130 81 -130 66 0 -7 36 -35 80 -61 l80
-49 0 -84 c0 -82 -1 -84 -29 -98 -24 -13 -29 -23 -34 -68 -4 -29 -7 -70 -7
-90 l0 -37 398 -3 c457 -3 438 0 429 -83 -11 -101 -139 -741 -153 -763 -8 -13
-26 -27 -40 -32 -16 -6 -503 -10 -1270 -10 -1231 0 -1244 0 -1264 20 -11 11
-20 28 -20 37 0 30 140 746 152 776 19 50 32 52 348 57 l295 5 3 447 2 447 65
93 c35 51 103 151 151 222 53 76 97 132 112 137 13 5 47 9 77 9 45 0 56 -4 72
-24 17 -24 25 -25 221 -37 156 -10 205 -10 214 -1 16 16 120 16 136 0 8 -8 12
-58 12 -157 l0 -145 -44 -46 -45 -45 16 -175 c8 -96 19 -179 24 -185 12 -12
12 19 -3 203 l-12 152 42 43 42 43 0 152 c0 139 -2 154 -20 172 -24 24 -100
27 -151 6 -26 -10 -60 -12 -144 -6 -243 17 -263 20 -280 46 -14 21 -23 24 -78
23 -34 -1 -72 -4 -84 -7z"/>
<path d="M1353 2700 c-11 -5 -87 -104 -167 -220 l-146 -211 -2 -457 -3 -457
-307 -5 c-267 -4 -309 -7 -324 -21 -11 -12 -39 -137 -90 -395 -41 -209 -74
-387 -74 -396 0 -10 9 -22 19 -28 13 -7 424 -10 1260 -10 l1240 0 25 23 c22
20 31 58 95 389 39 201 71 378 71 392 0 15 -8 30 -19 36 -13 6 -161 10 -414
10 -216 0 -396 2 -398 5 -3 2 -1 46 4 97 8 85 11 95 38 119 27 24 29 30 29 97
l0 71 -57 37 c-32 21 -77 47 -100 58 -48 24 -58 39 -41 65 9 14 8 62 -3 202
l-15 184 42 40 42 40 4 135 c3 74 3 141 1 148 -6 15 -85 16 -128 0 -25 -8 -79
-8 -235 4 -189 14 -205 16 -218 36 -11 18 -24 22 -61 21 -25 0 -56 -4 -68 -9z
m447 -115 c80 -3 160 -8 178 -11 l33 -5 -3 -81 -3 -80 -140 1 c-77 0 -197 4
-267 7 l-128 7 0 90 0 90 93 -6 c50 -4 157 -9 237 -12z m29 -327 c14 -40 44
-369 34 -379 -5 -5 -87 -8 -194 -7 l-184 3 -18 188 c-11 103 -16 194 -13 202
4 12 37 15 186 15 178 0 181 0 189 -22z m-661 -188 l7 -75 50 -5 50 -5 7 -50
c3 -27 6 -115 6 -195 l0 -145 -27 154 c-14 85 -30 156 -36 157 -5 1 -27 5 -47
9 l-38 6 0 83 c0 85 12 197 17 161 2 -11 7 -54 11 -95z m637 -280 c3 -5 -3
-10 -14 -10 -12 0 -21 5 -21 10 0 6 6 10 14 10 8 0 18 -4 21 -10z m56 -49 c-8
-5 -20 -7 -28 -4 -21 8 -15 13 15 13 20 0 23 -3 13 -9z m-717 -183 c9 -75 16
-141 16 -147 0 -5 48 -41 106 -81 58 -40 103 -74 100 -77 -3 -3 -60 24 -128
59 l-123 65 -2 174 c-3 204 8 206 31 7z m886 -181 c-15 -103 -29 -189 -31
-191 -8 -7 -420 -62 -423 -57 -2 3 6 84 18 179 19 144 26 176 44 195 12 13 22
28 22 34 0 6 68 15 178 22 97 7 184 13 192 15 8 1 18 0 22 -3 3 -3 -6 -91 -22
-194z m490 -91 c0 -2 -30 -15 -67 -28 l-68 -23 150 -5 c84 -3 139 -8 125 -12
-31 -9 -382 -39 -388 -33 -2 2 6 18 18 35 12 17 20 33 18 36 -3 2 -36 10 -74
18 l-69 14 178 1 c97 0 177 -1 177 -3z m-1625 -30 l110 -13 -147 -2 c-82 0
-148 -4 -148 -9 0 -4 26 -17 58 -29 l57 -21 -150 0 c-130 1 -143 2 -97 11 54
10 62 20 37 53 -8 10 -15 23 -15 28 0 10 119 2 295 -18z m10 -246 c0 -23 -4
-25 -50 -28 l-50 -3 3 -125 3 -125 27 3 c24 3 27 8 30 46 2 31 -1 44 -12 48
-9 3 -16 17 -16 31 0 22 4 24 38 21 l37 -3 3 -83 c2 -53 -1 -89 -9 -98 -8 -9
-33 -14 -75 -14 -52 0 -65 3 -74 19 -5 11 -10 83 -10 160 0 129 2 143 20 161
17 17 31 20 78 18 53 -3 57 -5 57 -28z m177 -125 c34 -187 34 -205 8 -205 -13
0 -24 10 -30 25 -13 34 -67 36 -72 3 -2 -15 -11 -24 -25 -26 -18 -3 -23 1 -23
20 0 25 47 304 55 326 3 8 16 12 32 10 28 -3 28 -4 55 -153z m127 88 c11 -38
28 -96 37 -131 10 -34 20 -60 23 -56 3 3 21 60 41 127 33 116 36 122 63 125
l27 3 0 -180 0 -181 -25 0 c-25 0 -25 1 -26 88 l-1 87 -27 -85 c-24 -76 -30
-85 -53 -88 -24 -3 -28 1 -43 55 -31 112 -33 113 -34 25 l-1 -83 -27 3 -28 3
-3 165 c-1 90 0 170 2 177 3 7 17 13 30 13 22 0 27 -8 45 -67z m351 37 c0 -29
-2 -30 -45 -30 l-45 0 0 -50 0 -50 35 0 c31 0 35 -3 35 -25 0 -22 -4 -25 -35
-25 l-35 0 0 -50 0 -50 45 0 c41 0 45 -2 45 -25 0 -24 -2 -25 -70 -25 l-70 0
0 180 0 180 70 0 70 0 0 -30z m171 20 c14 -8 19 -21 19 -55 0 -41 -2 -45 -25
-45 -20 0 -25 5 -25 25 0 21 -5 25 -30 25 -49 0 -40 -39 25 -118 49 -60 55
-71 55 -113 0 -61 -13 -71 -92 -67 l-63 3 -3 48 c-3 45 -2 47 22 47 21 0 26
-5 26 -25 0 -21 5 -25 30 -25 47 0 39 36 -25 115 -52 62 -55 70 -55 120 0 41
4 56 18 64 22 14 98 14 123 1z m217 -73 l3 -77 29 0 29 0 3 78 c3 75 4 77 28
77 l25 0 0 -175 0 -175 -27 -3 -28 -3 0 75 0 76 -30 0 -30 0 0 -75 c0 -73 -1
-75 -25 -75 l-25 0 0 173 c0 96 3 177 7 181 4 4 14 5 23 4 12 -3 16 -20 18
-81z m190 -74 l3 -153 29 0 30 0 0 156 0 155 23 -3 c22 -3 22 -6 25 -167 2
-115 -1 -168 -9 -178 -9 -10 -30 -13 -78 -11 l-66 3 -5 173 c-3 96 -3 176 0
178 2 3 13 4 25 2 19 -3 20 -11 23 -155z m275 145 c15 -11 17 -33 14 -178 l-2
-165 -77 -3 -78 -3 0 181 0 180 63 0 c35 0 71 -6 80 -12z m-1510 -75 c-13 -2
-35 -2 -50 0 -16 2 -5 4 22 4 28 0 40 -2 28 -4z m645 0 c-10 -2 -26 -2 -35 0
-10 3 -2 5 17 5 19 0 27 -2 18 -5z m185 -50 c-7 -2 -19 -2 -25 0 -7 3 -2 5 12
5 14 0 19 -2 13 -5z m-138 -33 c10 -11 16 -20 13 -20 -3 0 -13 9 -23 20 -10
11 -16 20 -13 20 3 0 13 -9 23 -20z m285 -5 c0 -24 -3 -25 -55 -25 -52 0 -55
1 -55 25 0 24 3 25 55 25 52 0 55 -1 55 -25z m-249 -42 c13 -16 12 -17 -3 -4
-17 13 -22 21 -14 21 2 0 10 -8 17 -17z m227 -20 c-15 -2 -42 -2 -60 0 -18 2
-6 4 27 4 33 0 48 -2 33 -4z m-310 -10 c-10 -2 -26 -2 -35 0 -10 3 -2 5 17 5
19 0 27 -2 18 -5z m-511 -99 c-3 -3 -12 -4 -19 -1 -8 3 -5 6 6 6 11 1 17 -2
13 -5z m709 -39 c-14 -11 -63 -14 -219 -14 -110 -1 -198 1 -195 4 2 3 90 6
194 6 104 1 198 5 209 9 29 12 32 11 11 -5z m-749 -9 c3 -3 -47 -5 -110 -5
-64 0 -118 3 -121 7 -4 8 223 6 231 -2z m1427 2 c-3 -4 -100 -7 -217 -6 -117
1 -192 4 -167 8 67 8 389 6 384 -2z m-1256 -5 c-21 -2 -57 -2 -80 0 -24 2 -7
4 37 4 44 0 63 -2 43 -4z m125 0 c-13 -2 -33 -2 -45 0 -13 2 -3 4 22 4 25 0
35 -2 23 -4z m660 0 c-13 -2 -35 -2 -50 0 -16 2 -5 4 22 4 28 0 40 -2 28 -4z"/>
<path d="M1500 2572 c0 -11 86 -19 323 -28 111 -4 167 -3 167 4 0 12 -81 20
-312 28 -118 4 -178 3 -178 -4z"/>
<path d="M1503 2447 c-3 -5 -3 -10 -2 -12 2 -1 113 -6 247 -10 168 -5 242 -4
242 3 0 6 -24 13 -52 16 -87 10 -430 12 -435 3z"/>
<path d="M1017 910 c-3 -19 -9 -56 -13 -82 -6 -47 -6 -48 21 -48 26 0 26 0 19
57 -4 31 -10 69 -14 83 -6 24 -7 23 -13 -10z"/>
<path d="M2320 935 c0 -43 1 -45 30 -45 29 0 30 2 30 45 0 43 -1 45 -30 45
-29 0 -30 -2 -30 -45z"/>
<path d="M2320 786 c0 -56 0 -56 31 -56 l30 0 -3 53 c-3 48 -5 52 -30 55 -28
3 -28 2 -28 -52z"/>
</g>
</svg>
